<mxfile host="Electron" modified="2023-05-03T15:26:18.125Z" agent="Mozilla/5.0 (Windows NT 10.0; Win64; x64) AppleWebKit/537.36 (KHTML, like Gecko) draw.io/21.1.2 Chrome/106.0.5249.199 Electron/21.4.3 Safari/537.36" etag="0o_5Ecshs2D8lMLFq55T" version="21.1.2" type="device">
  <diagram id="C5RBs43oDa-KdzZeNtuy" name="Page-1">
    <mxGraphModel dx="4410" dy="1463" grid="1" gridSize="10" guides="1" tooltips="1" connect="0" arrows="1" fold="1" page="1" pageScale="1" pageWidth="2336" pageHeight="1654" math="0" shadow="0">
      <root>
        <mxCell id="WIyWlLk6GJQsqaUBKTNV-0" />
        <mxCell id="WIyWlLk6GJQsqaUBKTNV-1" parent="WIyWlLk6GJQsqaUBKTNV-0" />
        <mxCell id="9_fdUrSxjmN1W93VfHhp-2" value="" style="rounded=0;whiteSpace=wrap;html=1;fillColor=#dae8fc;strokeColor=#6c8ebf;fontFamily=Verdana;" parent="WIyWlLk6GJQsqaUBKTNV-1" vertex="1">
          <mxGeometry x="-700" y="506.5" width="300" height="426" as="geometry" />
        </mxCell>
        <mxCell id="9_fdUrSxjmN1W93VfHhp-0" value="&lt;p style=&quot;margin:0px;margin-top:4px;text-align:center;&quot;&gt;&lt;i&gt;&amp;lt;&amp;lt;enumeration&amp;gt;&amp;gt;&lt;/i&gt;&lt;br&gt;&lt;b&gt;RatioedUnit&lt;/b&gt;&lt;/p&gt;&lt;hr size=&quot;1&quot;&gt;&lt;p style=&quot;margin:0px;margin-left:4px;&quot;&gt;&lt;br&gt;&lt;/p&gt;" style="verticalAlign=top;align=left;overflow=fill;fontSize=12;fontFamily=Verdana;html=1;sketch=0;strokeWidth=2;" parent="WIyWlLk6GJQsqaUBKTNV-1" vertex="1">
          <mxGeometry x="-544" y="750" width="130" height="74" as="geometry" />
        </mxCell>
        <mxCell id="9_fdUrSxjmN1W93VfHhp-12" value="&lt;p style=&quot;margin:0px;margin-top:4px;text-align:center;&quot;&gt;&lt;b&gt;Identifier&lt;/b&gt;&lt;/p&gt;&lt;hr size=&quot;1&quot;&gt;&lt;p style=&quot;margin:0px;margin-left:4px;&quot;&gt;&lt;br&gt;&lt;/p&gt;" style="verticalAlign=top;align=left;overflow=fill;fontSize=12;fontFamily=Verdana;html=1;sketch=0;strokeWidth=2;" parent="WIyWlLk6GJQsqaUBKTNV-1" vertex="1">
          <mxGeometry x="-680" y="754" width="110" height="70" as="geometry" />
        </mxCell>
        <mxCell id="A5fvS7BDDAw0l9XVEY4Y-33" value="&lt;p style=&quot;margin:0px;margin-top:4px;text-align:center;&quot;&gt;&lt;b&gt;EnumeratedItem&lt;/b&gt;&lt;/p&gt;&lt;hr size=&quot;1&quot;&gt;&lt;p style=&quot;margin:0px;margin-left:4px;&quot;&gt;&lt;br&gt;&lt;/p&gt;" style="verticalAlign=top;align=left;overflow=fill;fontSize=12;fontFamily=Verdana;html=1;sketch=0;strokeWidth=2;" parent="WIyWlLk6GJQsqaUBKTNV-1" vertex="1">
          <mxGeometry x="-530" y="843.5" width="130" height="74.75" as="geometry" />
        </mxCell>
        <mxCell id="A5fvS7BDDAw0l9XVEY4Y-54" value="&lt;p style=&quot;margin:0px;margin-top:4px;text-align:center;&quot;&gt;&lt;b&gt;LocalUnit&lt;/b&gt;&lt;/p&gt;&lt;hr size=&quot;1&quot;&gt;&lt;p style=&quot;margin:0px;margin-left:4px;&quot;&gt;&amp;nbsp;&lt;br&gt;&lt;/p&gt;&lt;hr size=&quot;1&quot;&gt;&lt;p style=&quot;margin:0px;margin-left:4px;&quot;&gt;&lt;br&gt;&lt;/p&gt;" style="verticalAlign=top;align=left;overflow=fill;fontSize=12;fontFamily=Verdana;html=1;sketch=0;strokeWidth=2;" parent="WIyWlLk6GJQsqaUBKTNV-1" vertex="1">
          <mxGeometry x="-680" y="533.5" width="110" height="90" as="geometry" />
        </mxCell>
        <mxCell id="A5fvS7BDDAw0l9XVEY4Y-61" value="" style="endArrow=classic;html=1;sketch=0;fontFamily=Verdana;curved=1;" parent="WIyWlLk6GJQsqaUBKTNV-1" source="A5fvS7BDDAw0l9XVEY4Y-54" target="Fh2eQYCEiK_2gspSJ3Qt-0" edge="1">
          <mxGeometry width="50" height="50" relative="1" as="geometry">
            <mxPoint x="-504.99999999999994" y="1117.5" as="sourcePoint" />
            <mxPoint x="-590.28" y="672.836" as="targetPoint" />
          </mxGeometry>
        </mxCell>
        <mxCell id="A5fvS7BDDAw0l9XVEY4Y-96" value="" style="swimlane;startSize=0;sketch=0;fontFamily=Verdana;strokeWidth=2;" parent="WIyWlLk6GJQsqaUBKTNV-1" vertex="1">
          <mxGeometry x="-1350" y="120" width="228.3" height="100" as="geometry" />
        </mxCell>
        <mxCell id="9_fdUrSxjmN1W93VfHhp-1" value="&lt;h1&gt;&lt;span style=&quot;background-color: initial;&quot;&gt;eCH-0263&lt;/span&gt;&lt;/h1&gt;&lt;div&gt;&lt;br&gt;&lt;/div&gt;" style="text;html=1;strokeColor=none;fillColor=none;spacing=5;spacingTop=-20;whiteSpace=wrap;overflow=hidden;rounded=0;strokeWidth=2;fontFamily=Verdana;" parent="A5fvS7BDDAw0l9XVEY4Y-96" vertex="1">
          <mxGeometry x="13.3" width="195.7" height="80" as="geometry" />
        </mxCell>
        <mxCell id="A5fvS7BDDAw0l9XVEY4Y-100" value="Resources" style="text;html=1;strokeColor=none;fillColor=none;align=left;verticalAlign=middle;whiteSpace=wrap;rounded=0;strokeWidth=2;fontFamily=Verdana;" parent="A5fvS7BDDAw0l9XVEY4Y-96" vertex="1">
          <mxGeometry x="23.6" y="50" width="226.4" height="30" as="geometry" />
        </mxCell>
        <mxCell id="A5fvS7BDDAw0l9XVEY4Y-97" value="For Visualisation Purposes Only&lt;br&gt;Not purely correct UML!&lt;br&gt;1-1 correspondence to XSD does &lt;br&gt;not exist.&lt;br&gt;(e.g. XSD use will be using &quot;choice,&lt;br&gt;not inheritence or interface,&lt;br&gt;UML does not contain restrictions)&lt;br&gt;&lt;br&gt;Default Cardinality: 1&lt;br&gt;Attributes not depicted by default" style="text;html=1;strokeColor=none;fillColor=none;align=left;verticalAlign=middle;whiteSpace=wrap;rounded=0;strokeWidth=2;fontFamily=Verdana;" parent="WIyWlLk6GJQsqaUBKTNV-1" vertex="1">
          <mxGeometry x="-1090" y="165" width="450" height="30" as="geometry" />
        </mxCell>
        <mxCell id="3pSlS8YH4z9lj6zPETBl-3" value="v&amp;nbsp; &amp;nbsp; &amp;nbsp; &amp;nbsp; &amp;nbsp; &amp;nbsp; &amp;nbsp;&amp;nbsp;" style="rounded=0;whiteSpace=wrap;html=1;fillColor=#dae8fc;strokeColor=#6c8ebf;fontFamily=Verdana;" parent="WIyWlLk6GJQsqaUBKTNV-1" vertex="1">
          <mxGeometry x="-730" y="265" width="210" height="155" as="geometry" />
        </mxCell>
        <mxCell id="3pSlS8YH4z9lj6zPETBl-47" value="&lt;p style=&quot;margin:0px;margin-top:4px;text-align:center;&quot;&gt;&lt;b&gt;Person&lt;/b&gt;&lt;/p&gt;&lt;hr size=&quot;1&quot;&gt;&lt;p style=&quot;margin:0px;margin-left:4px;&quot;&gt;&amp;nbsp;&lt;br&gt;&lt;/p&gt;&lt;hr size=&quot;1&quot;&gt;&lt;p style=&quot;margin:0px;margin-left:4px;&quot;&gt;&lt;br&gt;&lt;/p&gt;" style="verticalAlign=top;align=left;overflow=fill;fontSize=12;fontFamily=Verdana;html=1;sketch=0;strokeWidth=2;" parent="WIyWlLk6GJQsqaUBKTNV-1" vertex="1">
          <mxGeometry x="-544" y="540.31" width="130" height="90" as="geometry" />
        </mxCell>
        <mxCell id="fq_hDrngQvyFMPAxzldU-8" value="&lt;p style=&quot;margin:0px;margin-top:4px;text-align:center;&quot;&gt;&lt;b&gt;Manure&lt;/b&gt;&lt;/p&gt;&lt;p style=&quot;margin:0px;margin-top:4px;text-align:center;&quot;&gt;&lt;b&gt;RecyclingProduct&lt;/b&gt;&lt;/p&gt;&lt;hr size=&quot;1&quot;&gt;&lt;p style=&quot;margin:0px;margin-left:4px;&quot;&gt;&amp;nbsp;&lt;br&gt;&lt;/p&gt;&lt;hr size=&quot;1&quot;&gt;&lt;p style=&quot;margin:0px;margin-left:4px;&quot;&gt;&lt;br&gt;&lt;/p&gt;" style="verticalAlign=top;align=left;overflow=fill;fontSize=12;fontFamily=Verdana;html=1;sketch=0;strokeWidth=2;fillColor=#e1d5e7;strokeColor=#9673a6;" parent="WIyWlLk6GJQsqaUBKTNV-1" vertex="1">
          <mxGeometry x="-1524.65" y="579.25" width="139.3" height="85" as="geometry" />
        </mxCell>
        <mxCell id="fq_hDrngQvyFMPAxzldU-10" value="&lt;p style=&quot;margin:0px;margin-top:4px;text-align:center;&quot;&gt;&lt;b&gt;PlantProtection&lt;/b&gt;&lt;/p&gt;&lt;p style=&quot;margin:0px;margin-top:4px;text-align:center;&quot;&gt;&lt;b&gt;Product&lt;/b&gt;&lt;/p&gt;&lt;hr size=&quot;1&quot;&gt;&lt;p style=&quot;margin:0px;margin-left:4px;&quot;&gt;&amp;nbsp;&lt;br&gt;&lt;/p&gt;&lt;hr size=&quot;1&quot;&gt;&lt;p style=&quot;margin:0px;margin-left:4px;&quot;&gt;&lt;br&gt;&lt;/p&gt;" style="verticalAlign=top;align=left;overflow=fill;fontSize=12;fontFamily=Verdana;html=1;sketch=0;strokeWidth=2;fillColor=#e1d5e7;strokeColor=#9673a6;" parent="WIyWlLk6GJQsqaUBKTNV-1" vertex="1">
          <mxGeometry x="-1119.3" y="526" width="120" height="85" as="geometry" />
        </mxCell>
        <mxCell id="fq_hDrngQvyFMPAxzldU-11" value="&lt;p style=&quot;margin:0px;margin-top:4px;text-align:center;&quot;&gt;&lt;b&gt;Feedstuff&lt;/b&gt;&lt;/p&gt;&lt;hr size=&quot;1&quot;&gt;&lt;p style=&quot;margin:0px;margin-left:4px;&quot;&gt;&amp;nbsp;&lt;br&gt;&lt;/p&gt;&lt;hr size=&quot;1&quot;&gt;&lt;p style=&quot;margin:0px;margin-left:4px;&quot;&gt;&lt;br&gt;&lt;/p&gt;" style="verticalAlign=top;align=left;overflow=fill;fontSize=12;fontFamily=Verdana;html=1;sketch=0;strokeWidth=2;fillColor=#e1d5e7;strokeColor=#9673a6;" parent="WIyWlLk6GJQsqaUBKTNV-1" vertex="1">
          <mxGeometry x="-1890" y="465.25" width="137.5" height="67.25" as="geometry" />
        </mxCell>
        <mxCell id="fq_hDrngQvyFMPAxzldU-21" value="" style="endArrow=classic;html=1;sketch=0;fontFamily=Verdana;curved=1;" parent="WIyWlLk6GJQsqaUBKTNV-1" source="fq_hDrngQvyFMPAxzldU-8" target="ZqzKbb4cEfQE_WqFz7V7-3" edge="1">
          <mxGeometry width="50" height="50" relative="1" as="geometry">
            <mxPoint x="-919.3099999999997" y="750.45" as="sourcePoint" />
            <mxPoint x="-1098.8" y="1081.015" as="targetPoint" />
          </mxGeometry>
        </mxCell>
        <mxCell id="fq_hDrngQvyFMPAxzldU-26" value="&lt;p style=&quot;margin:0px;margin-top:4px;text-align:center;&quot;&gt;&lt;b&gt;DressedSeed&lt;/b&gt;&lt;span style=&quot;background-color: initial; text-align: left;&quot;&gt;&amp;nbsp;&lt;/span&gt;&lt;/p&gt;&lt;hr size=&quot;1&quot;&gt;&lt;p style=&quot;margin:0px;margin-left:4px;&quot;&gt;&lt;br&gt;&lt;/p&gt;" style="verticalAlign=top;align=left;overflow=fill;fontSize=12;fontFamily=Verdana;html=1;sketch=0;strokeWidth=2;fillColor=#e1d5e7;strokeColor=#9673a6;" parent="WIyWlLk6GJQsqaUBKTNV-1" vertex="1">
          <mxGeometry x="-1060" y="280" width="120" height="100" as="geometry" />
        </mxCell>
        <mxCell id="fq_hDrngQvyFMPAxzldU-39" value="" style="endArrow=classic;html=1;sketch=0;fontFamily=Verdana;curved=1;exitX=0.757;exitY=1.005;exitDx=0;exitDy=0;exitPerimeter=0;" parent="WIyWlLk6GJQsqaUBKTNV-1" source="fq_hDrngQvyFMPAxzldU-10" target="ZqzKbb4cEfQE_WqFz7V7-2" edge="1">
          <mxGeometry width="50" height="50" relative="1" as="geometry">
            <mxPoint x="-642.8106490872208" y="740.5" as="sourcePoint" />
            <mxPoint x="-611.0368154158216" y="711" as="targetPoint" />
          </mxGeometry>
        </mxCell>
        <mxCell id="fq_hDrngQvyFMPAxzldU-55" value="&lt;p style=&quot;margin:0px;margin-top:4px;text-align:center;&quot;&gt;&lt;b&gt;&lt;i&gt;Product&lt;/i&gt;&lt;/b&gt;&lt;/p&gt;&lt;hr size=&quot;1&quot;&gt;&lt;p style=&quot;margin:0px;margin-left:4px;&quot;&gt;+Id: Identifier&lt;br&gt;&lt;/p&gt;&lt;p style=&quot;margin:0px;margin-left:4px;&quot;&gt;+descriptor: Descriptor&amp;nbsp;&lt;/p&gt;&lt;p style=&quot;margin:0px;margin-left:4px;&quot;&gt;+manufacturer: LegalUnit&lt;/p&gt;&lt;p style=&quot;margin:0px;margin-left:4px;&quot;&gt;+transactionUnit: Unit:g | l&lt;/p&gt;&lt;p style=&quot;margin:0px;margin-left:4px;&quot;&gt;+densityConcentration:&amp;nbsp;&lt;/p&gt;&lt;p style=&quot;margin:0px;margin-left:4px;&quot;&gt;&amp;nbsp; &amp;nbsp; &amp;nbsp; &amp;nbsp; &amp;nbsp; &amp;nbsp; &amp;nbsp; &amp;nbsp; &amp;nbsp; decimal (if Liter used)&lt;/p&gt;&lt;hr size=&quot;1&quot;&gt;&lt;p style=&quot;margin:0px;margin-left:4px;&quot;&gt;&lt;br&gt;&lt;/p&gt;" style="verticalAlign=top;align=left;overflow=fill;fontSize=12;fontFamily=Verdana;html=1;sketch=0;strokeWidth=2;" parent="WIyWlLk6GJQsqaUBKTNV-1" vertex="1">
          <mxGeometry x="-1339.3" y="285" width="220" height="125" as="geometry" />
        </mxCell>
        <mxCell id="fq_hDrngQvyFMPAxzldU-65" value="" style="endArrow=block;html=1;sketch=0;fontFamily=Verdana;curved=1;endFill=0;entryX=0;entryY=0.75;entryDx=0;entryDy=0;" parent="WIyWlLk6GJQsqaUBKTNV-1" source="fq_hDrngQvyFMPAxzldU-11" target="fq_hDrngQvyFMPAxzldU-55" edge="1">
          <mxGeometry width="50" height="50" relative="1" as="geometry">
            <mxPoint x="-917.6700000000001" y="705.6799999999998" as="sourcePoint" />
            <mxPoint x="-925.3615127919911" y="677.75" as="targetPoint" />
          </mxGeometry>
        </mxCell>
        <mxCell id="fq_hDrngQvyFMPAxzldU-67" value="" style="endArrow=block;html=1;sketch=0;fontFamily=Verdana;curved=1;endFill=0;exitX=0.25;exitY=0;exitDx=0;exitDy=0;entryX=0.856;entryY=0.998;entryDx=0;entryDy=0;entryPerimeter=0;" parent="WIyWlLk6GJQsqaUBKTNV-1" source="fq_hDrngQvyFMPAxzldU-10" target="fq_hDrngQvyFMPAxzldU-55" edge="1">
          <mxGeometry width="50" height="50" relative="1" as="geometry">
            <mxPoint x="-1100.9999999999998" y="597.5" as="sourcePoint" />
            <mxPoint x="-1053.6000000000001" y="423.5" as="targetPoint" />
          </mxGeometry>
        </mxCell>
        <mxCell id="fq_hDrngQvyFMPAxzldU-69" value="" style="endArrow=block;html=1;sketch=0;fontFamily=Verdana;curved=1;endFill=0;" parent="WIyWlLk6GJQsqaUBKTNV-1" source="fq_hDrngQvyFMPAxzldU-26" target="fq_hDrngQvyFMPAxzldU-55" edge="1">
          <mxGeometry width="50" height="50" relative="1" as="geometry">
            <mxPoint x="-1163.8706258500997" y="782.8800000000001" as="sourcePoint" />
            <mxPoint x="-1242.3799999999997" y="542.3249999999998" as="targetPoint" />
          </mxGeometry>
        </mxCell>
        <mxCell id="Fh2eQYCEiK_2gspSJ3Qt-0" value="&lt;p style=&quot;margin:0px;margin-top:4px;text-align:center;&quot;&gt;&lt;b&gt;LegalUnit&lt;/b&gt;&lt;/p&gt;&lt;hr size=&quot;1&quot;&gt;&lt;p style=&quot;margin:0px;margin-left:4px;&quot;&gt;&amp;nbsp;&lt;br&gt;&lt;/p&gt;&lt;hr size=&quot;1&quot;&gt;&lt;p style=&quot;margin:0px;margin-left:4px;&quot;&gt;&lt;br&gt;&lt;/p&gt;" style="verticalAlign=top;align=left;overflow=fill;fontSize=12;fontFamily=Verdana;html=1;sketch=0;strokeWidth=2;" parent="WIyWlLk6GJQsqaUBKTNV-1" vertex="1">
          <mxGeometry x="-680" y="643.5" width="110" height="90" as="geometry" />
        </mxCell>
        <mxCell id="fq_hDrngQvyFMPAxzldU-75" value="&lt;p style=&quot;margin:0px;margin-top:4px;text-align:center;&quot;&gt;&lt;b&gt;Descriptor&lt;/b&gt;&lt;/p&gt;&lt;hr size=&quot;1&quot;&gt;&lt;p style=&quot;margin:0px;margin-left:4px;&quot;&gt;&lt;br&gt;&lt;/p&gt;" style="verticalAlign=top;align=left;overflow=fill;fontSize=12;fontFamily=Verdana;html=1;sketch=0;strokeWidth=2;" parent="WIyWlLk6GJQsqaUBKTNV-1" vertex="1">
          <mxGeometry x="-677.5" y="843.5" width="107.5" height="80" as="geometry" />
        </mxCell>
        <mxCell id="fq_hDrngQvyFMPAxzldU-76" value="eCH-0261 Local and Legal Units, Common" style="text;html=1;strokeColor=none;fillColor=none;align=left;verticalAlign=middle;whiteSpace=wrap;rounded=0;strokeWidth=2;fontFamily=Verdana;" parent="WIyWlLk6GJQsqaUBKTNV-1" vertex="1">
          <mxGeometry x="-689.5" y="502.5" width="290" height="30" as="geometry" />
        </mxCell>
        <mxCell id="fq_hDrngQvyFMPAxzldU-77" value="eCH-0265 Areas and Crops" style="text;html=1;strokeColor=none;fillColor=none;align=left;verticalAlign=middle;whiteSpace=wrap;rounded=0;strokeWidth=2;fontFamily=Verdana;" parent="WIyWlLk6GJQsqaUBKTNV-1" vertex="1">
          <mxGeometry x="-704" y="266.25" width="204" height="30" as="geometry" />
        </mxCell>
        <mxCell id="fq_hDrngQvyFMPAxzldU-80" value="" style="endArrow=classic;html=1;sketch=0;fontFamily=Verdana;curved=1;exitX=0;exitY=0.5;exitDx=0;exitDy=0;" parent="WIyWlLk6GJQsqaUBKTNV-1" source="A5fvS7BDDAw0l9XVEY4Y-33" target="9_fdUrSxjmN1W93VfHhp-12" edge="1">
          <mxGeometry width="50" height="50" relative="1" as="geometry">
            <mxPoint x="-348.5499999999999" y="873.5" as="sourcePoint" />
            <mxPoint x="-509.9999999999997" y="871.5" as="targetPoint" />
          </mxGeometry>
        </mxCell>
        <mxCell id="fq_hDrngQvyFMPAxzldU-83" value="" style="endArrow=classic;html=1;sketch=0;fontFamily=Verdana;curved=1;entryX=1;entryY=0.5;entryDx=0;entryDy=0;exitX=-0.033;exitY=0.68;exitDx=0;exitDy=0;exitPerimeter=0;" parent="WIyWlLk6GJQsqaUBKTNV-1" source="A5fvS7BDDAw0l9XVEY4Y-33" target="fq_hDrngQvyFMPAxzldU-75" edge="1">
          <mxGeometry width="50" height="50" relative="1" as="geometry">
            <mxPoint x="-650" y="1043.5" as="sourcePoint" />
            <mxPoint x="-839.7991543340381" y="761.75" as="targetPoint" />
          </mxGeometry>
        </mxCell>
        <mxCell id="fq_hDrngQvyFMPAxzldU-91" value="" style="endArrow=classic;html=1;sketch=0;fontFamily=Verdana;curved=1;entryX=-0.008;entryY=0.506;entryDx=0;entryDy=0;entryPerimeter=0;exitX=1.015;exitY=0.37;exitDx=0;exitDy=0;exitPerimeter=0;" parent="WIyWlLk6GJQsqaUBKTNV-1" source="fq_hDrngQvyFMPAxzldU-10" target="ZqzKbb4cEfQE_WqFz7V7-0" edge="1">
          <mxGeometry width="50" height="50" relative="1" as="geometry">
            <mxPoint x="-919.3000000000002" y="367.4147114235252" as="sourcePoint" />
            <mxPoint x="-1032.18" y="379.86250504005284" as="targetPoint" />
          </mxGeometry>
        </mxCell>
        <mxCell id="fq_hDrngQvyFMPAxzldU-93" value="&lt;p style=&quot;margin:0px;margin-top:4px;text-align:center;&quot;&gt;&lt;b&gt;FertiliserProduct&lt;/b&gt;&lt;/p&gt;&lt;hr size=&quot;1&quot;&gt;&lt;p style=&quot;margin:0px;margin-left:4px;&quot;&gt;&amp;nbsp;&lt;br&gt;&lt;/p&gt;&lt;hr size=&quot;1&quot;&gt;&lt;p style=&quot;margin:0px;margin-left:4px;&quot;&gt;&lt;br&gt;&lt;/p&gt;" style="verticalAlign=top;align=left;overflow=fill;fontSize=12;fontFamily=Verdana;html=1;sketch=0;strokeWidth=2;fillColor=#e1d5e7;strokeColor=#9673a6;" parent="WIyWlLk6GJQsqaUBKTNV-1" vertex="1">
          <mxGeometry x="-1297.3" y="475" width="129.3" height="85" as="geometry" />
        </mxCell>
        <mxCell id="fq_hDrngQvyFMPAxzldU-98" value="" style="endArrow=block;html=1;sketch=0;fontFamily=Verdana;curved=1;endFill=0;" parent="WIyWlLk6GJQsqaUBKTNV-1" source="fq_hDrngQvyFMPAxzldU-8" target="fq_hDrngQvyFMPAxzldU-55" edge="1">
          <mxGeometry width="50" height="50" relative="1" as="geometry">
            <mxPoint x="-1155.85" y="932.5" as="sourcePoint" />
            <mxPoint x="-1230" y="932.5" as="targetPoint" />
          </mxGeometry>
        </mxCell>
        <mxCell id="fq_hDrngQvyFMPAxzldU-123" value="" style="endArrow=block;html=1;sketch=0;fontFamily=Verdana;curved=1;endFill=0;" parent="WIyWlLk6GJQsqaUBKTNV-1" source="fq_hDrngQvyFMPAxzldU-93" target="fq_hDrngQvyFMPAxzldU-55" edge="1">
          <mxGeometry width="50" height="50" relative="1" as="geometry">
            <mxPoint x="-1032.3999999999999" y="743.5" as="sourcePoint" />
            <mxPoint x="-1104.16598062954" y="423.5" as="targetPoint" />
          </mxGeometry>
        </mxCell>
        <mxCell id="fq_hDrngQvyFMPAxzldU-125" value="" style="endArrow=classic;html=1;sketch=0;fontFamily=Verdana;curved=1;exitX=1.006;exitY=0.34;exitDx=0;exitDy=0;exitPerimeter=0;" parent="WIyWlLk6GJQsqaUBKTNV-1" source="fq_hDrngQvyFMPAxzldU-26" target="fq_hDrngQvyFMPAxzldU-141" edge="1">
          <mxGeometry width="50" height="50" relative="1" as="geometry">
            <mxPoint x="-831.7250290360048" y="837" as="sourcePoint" />
            <mxPoint x="-818.6483606557379" y="900" as="targetPoint" />
          </mxGeometry>
        </mxCell>
        <mxCell id="fq_hDrngQvyFMPAxzldU-140" value="" style="endArrow=block;html=1;sketch=0;fontFamily=Verdana;curved=1;endFill=0;dashed=1;" parent="WIyWlLk6GJQsqaUBKTNV-1" source="fq_hDrngQvyFMPAxzldU-10" target="ZqzKbb4cEfQE_WqFz7V7-59" edge="1">
          <mxGeometry width="50" height="50" relative="1" as="geometry">
            <mxPoint x="-1119.3" y="868.7927588157645" as="sourcePoint" />
            <mxPoint x="-1022.1800000000001" y="835.369413539506" as="targetPoint" />
          </mxGeometry>
        </mxCell>
        <mxCell id="fq_hDrngQvyFMPAxzldU-141" value="&lt;p style=&quot;margin:0px;margin-top:4px;text-align:center;&quot;&gt;&lt;b&gt;BotanicalCrop&lt;/b&gt;&lt;/p&gt;&lt;hr size=&quot;1&quot;&gt;&lt;p style=&quot;margin:0px;margin-left:4px;&quot;&gt;&amp;nbsp;&lt;br&gt;&lt;/p&gt;&lt;hr size=&quot;1&quot;&gt;&lt;p style=&quot;margin:0px;margin-left:4px;&quot;&gt;&lt;br&gt;&lt;/p&gt;" style="verticalAlign=top;align=left;overflow=fill;fontSize=12;fontFamily=Verdana;html=1;sketch=0;strokeWidth=2;" parent="WIyWlLk6GJQsqaUBKTNV-1" vertex="1">
          <mxGeometry x="-680" y="310" width="130" height="90" as="geometry" />
        </mxCell>
        <mxCell id="ZqzKbb4cEfQE_WqFz7V7-0" value="&lt;p style=&quot;margin:0px;margin-top:4px;text-align:center;&quot;&gt;&lt;i&gt;«enumeration»&lt;/i&gt;&lt;br&gt;&lt;b&gt;PlantProtection&lt;/b&gt;&lt;/p&gt;&lt;p style=&quot;margin:0px;margin-top:4px;text-align:center;&quot;&gt;&lt;b&gt;ProductCategory&lt;/b&gt;&lt;/p&gt;&lt;hr size=&quot;1&quot;&gt;&lt;p style=&quot;margin:0px;margin-left:4px;&quot;&gt;+ item: EnumeratedItem&lt;br&gt;&lt;/p&gt;&lt;hr size=&quot;1&quot;&gt;&lt;p style=&quot;margin:0px;margin-left:4px;&quot;&gt;&lt;br&gt;&lt;/p&gt;" style="verticalAlign=top;align=left;overflow=fill;fontSize=12;fontFamily=Verdana;html=1;sketch=0;strokeWidth=2;" parent="WIyWlLk6GJQsqaUBKTNV-1" vertex="1">
          <mxGeometry x="-955" y="526" width="180" height="104" as="geometry" />
        </mxCell>
        <mxCell id="ZqzKbb4cEfQE_WqFz7V7-2" value="&lt;p style=&quot;margin:0px;margin-top:4px;text-align:center;&quot;&gt;&lt;b style=&quot;background-color: initial;&quot;&gt;Indication&lt;/b&gt;&lt;/p&gt;&lt;hr size=&quot;1&quot;&gt;&lt;p style=&quot;margin:0px;margin-left:4px;&quot;&gt;&amp;nbsp;&lt;br&gt;&lt;/p&gt;&lt;hr size=&quot;1&quot;&gt;&lt;p style=&quot;margin:0px;margin-left:4px;&quot;&gt;&lt;br&gt;&lt;/p&gt;" style="verticalAlign=top;align=left;overflow=fill;fontSize=12;fontFamily=Verdana;html=1;sketch=0;strokeWidth=2;" parent="WIyWlLk6GJQsqaUBKTNV-1" vertex="1">
          <mxGeometry x="-860" y="664.25" width="105.85" height="85" as="geometry" />
        </mxCell>
        <mxCell id="ZqzKbb4cEfQE_WqFz7V7-3" value="&lt;i style=&quot;border-color: var(--border-color); text-align: center;&quot;&gt;&lt;span style=&quot;white-space: pre;&quot;&gt;	&lt;/span&gt;&amp;nbsp; «enumeration»&lt;/i&gt;&lt;br style=&quot;border-color: var(--border-color); text-align: center;&quot;&gt;&lt;p style=&quot;margin:0px;margin-top:4px;text-align:center;&quot;&gt;&lt;b&gt;ManureRecycling&lt;/b&gt;&lt;/p&gt;&lt;p style=&quot;margin:0px;margin-top:4px;text-align:center;&quot;&gt;&lt;b&gt;ProductType&lt;/b&gt;&lt;/p&gt;&lt;hr size=&quot;1&quot;&gt;&lt;p style=&quot;margin:0px;margin-left:4px;&quot;&gt;+ item: EnumeratedItem&lt;br&gt;&lt;/p&gt;&lt;hr size=&quot;1&quot;&gt;&lt;p style=&quot;margin:0px;margin-left:4px;&quot;&gt;&lt;br&gt;&lt;/p&gt;" style="verticalAlign=top;align=left;overflow=fill;fontSize=12;fontFamily=Verdana;html=1;sketch=0;strokeWidth=2;" parent="WIyWlLk6GJQsqaUBKTNV-1" vertex="1">
          <mxGeometry x="-1400.35" y="750" width="180" height="103.5" as="geometry" />
        </mxCell>
        <mxCell id="ZqzKbb4cEfQE_WqFz7V7-11" value="" style="rounded=0;whiteSpace=wrap;html=1;fillColor=#dae8fc;strokeColor=#6c8ebf;fontFamily=Verdana;" parent="WIyWlLk6GJQsqaUBKTNV-1" vertex="1">
          <mxGeometry x="-2130" y="570" width="237.5" height="250" as="geometry" />
        </mxCell>
        <mxCell id="ZqzKbb4cEfQE_WqFz7V7-12" value="eCH-0266 Animals" style="text;html=1;strokeColor=none;fillColor=none;align=left;verticalAlign=middle;whiteSpace=wrap;rounded=0;strokeWidth=2;fontFamily=Verdana;" parent="WIyWlLk6GJQsqaUBKTNV-1" vertex="1">
          <mxGeometry x="-2122.5" y="570" width="290" height="30" as="geometry" />
        </mxCell>
        <mxCell id="ZqzKbb4cEfQE_WqFz7V7-18" value="&lt;p style=&quot;margin:0px;margin-top:4px;text-align:center;&quot;&gt;&lt;b&gt;PRIFAnimal&lt;/b&gt;&lt;/p&gt;&lt;hr size=&quot;1&quot;&gt;&lt;p style=&quot;margin:0px;margin-left:4px;&quot;&gt;&amp;nbsp;&amp;nbsp;&lt;br&gt;&lt;/p&gt;&lt;hr size=&quot;1&quot;&gt;&lt;p style=&quot;margin:0px;margin-left:4px;&quot;&gt;&lt;br&gt;&lt;/p&gt;" style="verticalAlign=top;align=left;overflow=fill;fontSize=12;fontFamily=Verdana;html=1;sketch=0;strokeWidth=2;" parent="WIyWlLk6GJQsqaUBKTNV-1" vertex="1">
          <mxGeometry x="-2096.25" y="613.5" width="170" height="65" as="geometry" />
        </mxCell>
        <mxCell id="ZqzKbb4cEfQE_WqFz7V7-22" value="&lt;p style=&quot;margin:0px;margin-top:4px;text-align:center;&quot;&gt;&lt;b&gt;ManureDerivation&lt;/b&gt;&lt;/p&gt;&lt;hr size=&quot;1&quot;&gt;&lt;p style=&quot;margin:0px;margin-left:4px;&quot;&gt;&amp;nbsp; +percentage: decimal&lt;br&gt;&lt;/p&gt;&lt;hr size=&quot;1&quot;&gt;&lt;p style=&quot;margin:0px;margin-left:4px;&quot;&gt;&lt;br&gt;&lt;/p&gt;" style="verticalAlign=top;align=left;overflow=fill;fontSize=12;fontFamily=Verdana;html=1;sketch=0;strokeWidth=2;" parent="WIyWlLk6GJQsqaUBKTNV-1" vertex="1">
          <mxGeometry x="-1830" y="611" width="180" height="70" as="geometry" />
        </mxCell>
        <mxCell id="ZqzKbb4cEfQE_WqFz7V7-26" value="" style="endArrow=classic;html=1;sketch=0;fontFamily=Verdana;curved=1;entryX=1;entryY=0.5;entryDx=0;entryDy=0;" parent="WIyWlLk6GJQsqaUBKTNV-1" source="ZqzKbb4cEfQE_WqFz7V7-22" target="ZqzKbb4cEfQE_WqFz7V7-18" edge="1">
          <mxGeometry width="50" height="50" relative="1" as="geometry">
            <mxPoint x="-1791.4099999999999" y="993.5699999999999" as="sourcePoint" />
            <mxPoint x="-1967.5" y="998.8178247961216" as="targetPoint" />
          </mxGeometry>
        </mxCell>
        <mxCell id="ZqzKbb4cEfQE_WqFz7V7-31" value="" style="rounded=0;whiteSpace=wrap;html=1;fillColor=#dae8fc;strokeColor=#6c8ebf;fontFamily=Verdana;" parent="WIyWlLk6GJQsqaUBKTNV-1" vertex="1">
          <mxGeometry x="-2130" y="839.5" width="300" height="140.5" as="geometry" />
        </mxCell>
        <mxCell id="ZqzKbb4cEfQE_WqFz7V7-32" value="eCH-0262 Farm Data &lt;br&gt;and Application &lt;br&gt;of Products" style="text;html=1;strokeColor=none;fillColor=none;align=left;verticalAlign=middle;whiteSpace=wrap;rounded=0;strokeWidth=2;fontFamily=Verdana;" parent="WIyWlLk6GJQsqaUBKTNV-1" vertex="1">
          <mxGeometry x="-2120" y="848.5" width="290" height="30" as="geometry" />
        </mxCell>
        <mxCell id="ZqzKbb4cEfQE_WqFz7V7-40" value="&lt;p style=&quot;margin:0px;margin-top:4px;text-align:center;&quot;&gt;&lt;i&gt;«enumeration»&lt;/i&gt;&lt;br&gt;&lt;b&gt;StallSystem&lt;/b&gt;&lt;/p&gt;&lt;hr size=&quot;1&quot;&gt;&lt;p style=&quot;margin:0px;margin-left:4px;&quot;&gt;+ item: EnumeratedItem&lt;br&gt;&lt;/p&gt;&lt;hr size=&quot;1&quot;&gt;&lt;p style=&quot;margin:0px;margin-left:4px;&quot;&gt;&lt;br&gt;&lt;/p&gt;" style="verticalAlign=top;align=left;overflow=fill;fontSize=12;fontFamily=Verdana;html=1;sketch=0;strokeWidth=2;" parent="WIyWlLk6GJQsqaUBKTNV-1" vertex="1">
          <mxGeometry x="-2016" y="869.5" width="180" height="100" as="geometry" />
        </mxCell>
        <mxCell id="ZqzKbb4cEfQE_WqFz7V7-42" value="" style="endArrow=classic;html=1;sketch=0;fontFamily=Verdana;curved=1;" parent="WIyWlLk6GJQsqaUBKTNV-1" source="ZqzKbb4cEfQE_WqFz7V7-22" target="ZqzKbb4cEfQE_WqFz7V7-40" edge="1">
          <mxGeometry width="50" height="50" relative="1" as="geometry">
            <mxPoint x="-1791.4099999999999" y="993.5699999999999" as="sourcePoint" />
            <mxPoint x="-1967.5" y="998.8178247961216" as="targetPoint" />
          </mxGeometry>
        </mxCell>
        <mxCell id="ZqzKbb4cEfQE_WqFz7V7-43" value="&lt;p style=&quot;margin:0px;margin-top:4px;text-align:center;&quot;&gt;&lt;i&gt;«enumeration»&lt;/i&gt;&lt;/p&gt;&lt;p style=&quot;margin:0px;margin-top:4px;text-align:center;&quot;&gt;&lt;b&gt;Utilisation&lt;/b&gt;&lt;/p&gt;&lt;hr size=&quot;1&quot;&gt;&lt;p style=&quot;margin:0px;margin-left:4px;&quot;&gt;+ item: EnumeratedItem&lt;br&gt;&lt;/p&gt;&lt;hr size=&quot;1&quot;&gt;&lt;p style=&quot;margin:0px;margin-left:4px;&quot;&gt;&lt;br&gt;&lt;/p&gt;" style="verticalAlign=top;align=left;overflow=fill;fontSize=12;fontFamily=Verdana;html=1;sketch=0;strokeWidth=2;" parent="WIyWlLk6GJQsqaUBKTNV-1" vertex="1">
          <mxGeometry x="-2100" y="705.25" width="170" height="94.75" as="geometry" />
        </mxCell>
        <mxCell id="ZqzKbb4cEfQE_WqFz7V7-44" value="" style="endArrow=classic;html=1;sketch=0;fontFamily=Verdana;curved=1;" parent="WIyWlLk6GJQsqaUBKTNV-1" source="ZqzKbb4cEfQE_WqFz7V7-22" target="ZqzKbb4cEfQE_WqFz7V7-43" edge="1">
          <mxGeometry width="50" height="50" relative="1" as="geometry">
            <mxPoint x="-1743.35" y="1021.5" as="sourcePoint" />
            <mxPoint x="-1885.14846743295" y="1232.5" as="targetPoint" />
          </mxGeometry>
        </mxCell>
        <mxCell id="ZqzKbb4cEfQE_WqFz7V7-45" value="0..1" style="text;html=1;strokeColor=none;fillColor=none;align=center;verticalAlign=middle;whiteSpace=wrap;rounded=0;" parent="WIyWlLk6GJQsqaUBKTNV-1" vertex="1">
          <mxGeometry x="-1935" y="724" width="60" height="30" as="geometry" />
        </mxCell>
        <mxCell id="ZqzKbb4cEfQE_WqFz7V7-59" value="&lt;p style=&quot;margin:0px;margin-top:4px;text-align:center;&quot;&gt;&lt;i&gt;«interface»&lt;/i&gt;&lt;br&gt;&lt;b&gt;ProtectedProduct&lt;/b&gt;&lt;/p&gt;+permissionHolder: LegalUnit | Person&lt;hr size=&quot;1&quot;&gt;&lt;p style=&quot;margin:0px;margin-left:4px;&quot;&gt;&amp;nbsp;&lt;br&gt;&lt;/p&gt;&lt;hr size=&quot;1&quot;&gt;&lt;p style=&quot;margin:0px;margin-left:4px;&quot;&gt;&lt;br&gt;&lt;/p&gt;" style="verticalAlign=top;align=left;overflow=fill;fontSize=12;fontFamily=Verdana;html=1;sketch=0;strokeWidth=2;" parent="WIyWlLk6GJQsqaUBKTNV-1" vertex="1">
          <mxGeometry x="-1150" y="724" width="240" height="91" as="geometry" />
        </mxCell>
        <mxCell id="ZqzKbb4cEfQE_WqFz7V7-60" value="" style="endArrow=block;html=1;sketch=0;fontFamily=Verdana;curved=1;endFill=0;dashed=1;exitX=0.954;exitY=0.988;exitDx=0;exitDy=0;exitPerimeter=0;" parent="WIyWlLk6GJQsqaUBKTNV-1" source="fq_hDrngQvyFMPAxzldU-93" target="ZqzKbb4cEfQE_WqFz7V7-59" edge="1">
          <mxGeometry width="50" height="50" relative="1" as="geometry">
            <mxPoint x="-1022.1800000000001" y="641.3338863542097" as="sourcePoint" />
            <mxPoint x="-889.3" y="631" as="targetPoint" />
          </mxGeometry>
        </mxCell>
        <mxCell id="ZqzKbb4cEfQE_WqFz7V7-66" value="&lt;p style=&quot;margin:0px;margin-top:4px;text-align:center;&quot;&gt;&lt;i&gt;«enumeration»&lt;/i&gt;&lt;br&gt;&lt;b&gt;Origin&lt;/b&gt;&lt;/p&gt;&lt;hr size=&quot;1&quot;&gt;&lt;p style=&quot;margin:0px;margin-left:4px;&quot;&gt;+ item: EnumeratedItem&lt;br&gt;&lt;/p&gt;&lt;hr size=&quot;1&quot;&gt;&lt;p style=&quot;margin:0px;margin-left:4px;&quot;&gt;&lt;br&gt;&lt;/p&gt;" style="verticalAlign=top;align=left;overflow=fill;fontSize=12;fontFamily=Verdana;html=1;sketch=0;strokeWidth=2;" parent="WIyWlLk6GJQsqaUBKTNV-1" vertex="1">
          <mxGeometry x="-2132.5" y="400" width="180" height="100" as="geometry" />
        </mxCell>
        <mxCell id="ZqzKbb4cEfQE_WqFz7V7-67" value="" style="endArrow=classic;html=1;sketch=0;fontFamily=Verdana;curved=1;exitX=0;exitY=0.25;exitDx=0;exitDy=0;" parent="WIyWlLk6GJQsqaUBKTNV-1" source="fq_hDrngQvyFMPAxzldU-11" target="ZqzKbb4cEfQE_WqFz7V7-66" edge="1">
          <mxGeometry width="50" height="50" relative="1" as="geometry">
            <mxPoint x="-1242.5" y="518.2499999999998" as="sourcePoint" />
            <mxPoint x="-1647.7600000000002" y="780.6300000000001" as="targetPoint" />
          </mxGeometry>
        </mxCell>
        <mxCell id="ZqzKbb4cEfQE_WqFz7V7-68" value="&lt;p style=&quot;margin:0px;margin-top:4px;text-align:center;&quot;&gt;&lt;i&gt;«enumeration»&lt;/i&gt;&lt;br&gt;&lt;b&gt;Label&lt;/b&gt;&lt;/p&gt;&lt;hr size=&quot;1&quot;&gt;&lt;p style=&quot;margin:0px;margin-left:4px;&quot;&gt;+ item: EnumeratedItem&lt;br&gt;&lt;/p&gt;&lt;hr size=&quot;1&quot;&gt;&lt;p style=&quot;margin:0px;margin-left:4px;&quot;&gt;&lt;br&gt;&lt;/p&gt;" style="verticalAlign=top;align=left;overflow=fill;fontSize=12;fontFamily=Verdana;html=1;sketch=0;strokeWidth=2;" parent="WIyWlLk6GJQsqaUBKTNV-1" vertex="1">
          <mxGeometry x="-2137.5" y="277.75" width="180" height="80" as="geometry" />
        </mxCell>
        <mxCell id="ZqzKbb4cEfQE_WqFz7V7-70" value="" style="endArrow=classic;html=1;sketch=0;fontFamily=Verdana;curved=1;exitX=0.106;exitY=-0.023;exitDx=0;exitDy=0;exitPerimeter=0;" parent="WIyWlLk6GJQsqaUBKTNV-1" source="fq_hDrngQvyFMPAxzldU-11" target="ZqzKbb4cEfQE_WqFz7V7-68" edge="1">
          <mxGeometry width="50" height="50" relative="1" as="geometry">
            <mxPoint x="-1223.75" y="476.8125" as="sourcePoint" />
            <mxPoint x="-1654.1" y="479.4486883828192" as="targetPoint" />
          </mxGeometry>
        </mxCell>
        <mxCell id="ZqzKbb4cEfQE_WqFz7V7-73" value="" style="endArrow=classic;html=1;sketch=0;fontFamily=Verdana;curved=1;exitX=0;exitY=0.75;exitDx=0;exitDy=0;entryX=0.697;entryY=-0.008;entryDx=0;entryDy=0;entryPerimeter=0;" parent="WIyWlLk6GJQsqaUBKTNV-1" source="fq_hDrngQvyFMPAxzldU-11" target="ZqzKbb4cEfQE_WqFz7V7-18" edge="1">
          <mxGeometry width="50" height="50" relative="1" as="geometry">
            <mxPoint x="-1469.1" y="494.9425000000001" as="sourcePoint" />
            <mxPoint x="-2009.7221446414997" y="616.81" as="targetPoint" />
          </mxGeometry>
        </mxCell>
        <mxCell id="ZqzKbb4cEfQE_WqFz7V7-74" value="&lt;p style=&quot;margin:0px;margin-top:4px;text-align:center;&quot;&gt;&lt;b&gt;SeedTreatment&lt;/b&gt;&lt;/p&gt;&lt;hr size=&quot;1&quot;&gt;&lt;p style=&quot;margin:0px;margin-left:4px;&quot;&gt;+ id: Identifikator&amp;nbsp;&lt;br&gt;&lt;/p&gt;&lt;p style=&quot;margin:0px;margin-left:4px;&quot;&gt;+ descriptor: Descriptor&lt;/p&gt;&lt;p style=&quot;margin:0px;margin-left:4px;&quot;&gt;+ quantity: decimal&lt;/p&gt;&lt;p style=&quot;margin:0px;margin-left:4px;&quot;&gt;+ unit: Unit:% | RatioedUnit:kg/pc&lt;/p&gt;&lt;hr size=&quot;1&quot;&gt;&lt;p style=&quot;margin:0px;margin-left:4px;&quot;&gt;&lt;br&gt;&lt;/p&gt;" style="verticalAlign=top;align=left;overflow=fill;fontSize=12;fontFamily=Verdana;html=1;sketch=0;strokeWidth=2;" parent="WIyWlLk6GJQsqaUBKTNV-1" vertex="1">
          <mxGeometry x="-989.3" y="402.5" width="229.3" height="100" as="geometry" />
        </mxCell>
        <mxCell id="ZqzKbb4cEfQE_WqFz7V7-75" value="" style="endArrow=classic;html=1;sketch=0;fontFamily=Verdana;curved=1;entryX=0.34;entryY=-0.005;entryDx=0;entryDy=0;entryPerimeter=0;" parent="WIyWlLk6GJQsqaUBKTNV-1" source="fq_hDrngQvyFMPAxzldU-26" target="ZqzKbb4cEfQE_WqFz7V7-74" edge="1">
          <mxGeometry width="50" height="50" relative="1" as="geometry">
            <mxPoint x="-1090" y="549" as="sourcePoint" />
            <mxPoint x="-822.5512995896033" y="869.5" as="targetPoint" />
          </mxGeometry>
        </mxCell>
        <mxCell id="ZqzKbb4cEfQE_WqFz7V7-76" value="" style="endArrow=classic;html=1;sketch=0;fontFamily=Verdana;curved=1;exitX=0.117;exitY=1.002;exitDx=0;exitDy=0;exitPerimeter=0;" parent="WIyWlLk6GJQsqaUBKTNV-1" source="ZqzKbb4cEfQE_WqFz7V7-74" target="fq_hDrngQvyFMPAxzldU-10" edge="1">
          <mxGeometry width="50" height="50" relative="1" as="geometry">
            <mxPoint x="-1001.0055451829724" y="562.5" as="sourcePoint" />
            <mxPoint x="-751.4999999999998" y="1063.1" as="targetPoint" />
          </mxGeometry>
        </mxCell>
        <mxCell id="ZqzKbb4cEfQE_WqFz7V7-79" value="allowedFor" style="text;html=1;strokeColor=none;fillColor=none;align=center;verticalAlign=middle;whiteSpace=wrap;rounded=0;" parent="WIyWlLk6GJQsqaUBKTNV-1" vertex="1">
          <mxGeometry x="-830" y="302.75" width="60" height="30" as="geometry" />
        </mxCell>
        <mxCell id="ZqzKbb4cEfQE_WqFz7V7-80" value="1..n&amp;nbsp; |&amp;nbsp; 1..n to Ingredient" style="text;html=1;strokeColor=none;fillColor=none;align=center;verticalAlign=middle;whiteSpace=wrap;rounded=0;" parent="WIyWlLk6GJQsqaUBKTNV-1" vertex="1">
          <mxGeometry x="-910" y="372.5" width="140" height="30" as="geometry" />
        </mxCell>
        <mxCell id="ZqzKbb4cEfQE_WqFz7V7-85" value="&lt;p style=&quot;margin:0px;margin-top:4px;text-align:center;&quot;&gt;&lt;b style=&quot;background-color: initial;&quot;&gt;Substance&lt;/b&gt;&lt;br&gt;&lt;/p&gt;&lt;hr size=&quot;1&quot;&gt;&lt;p style=&quot;margin:0px;margin-left:4px;&quot;&gt;&amp;nbsp;+ id: Identifier&lt;br&gt;&lt;/p&gt;&lt;p style=&quot;margin:0px;margin-left:4px;&quot;&gt;+descriptor: Descriptor&lt;/p&gt;&lt;hr size=&quot;1&quot;&gt;&lt;p style=&quot;margin:0px;margin-left:4px;&quot;&gt;&lt;br&gt;&lt;/p&gt;" style="verticalAlign=top;align=left;overflow=fill;fontSize=12;fontFamily=Verdana;html=1;sketch=0;strokeWidth=2;" parent="WIyWlLk6GJQsqaUBKTNV-1" vertex="1">
          <mxGeometry x="-1770" y="120" width="180" height="95" as="geometry" />
        </mxCell>
        <mxCell id="ZqzKbb4cEfQE_WqFz7V7-86" value="" style="endArrow=classic;html=1;sketch=0;fontFamily=Verdana;curved=1;exitX=-0.003;exitY=0.581;exitDx=0;exitDy=0;exitPerimeter=0;" parent="WIyWlLk6GJQsqaUBKTNV-1" source="fq_hDrngQvyFMPAxzldU-55" target="eB_fhc0voJm1Zt_swYeX-0" edge="1">
          <mxGeometry width="50" height="50" relative="1" as="geometry">
            <mxPoint x="-1450.35" y="554.3799999999999" as="sourcePoint" />
            <mxPoint x="-1498.25" y="361.81999999999994" as="targetPoint" />
          </mxGeometry>
        </mxCell>
        <mxCell id="ZqzKbb4cEfQE_WqFz7V7-87" value="1..*" style="text;html=1;strokeColor=none;fillColor=none;align=center;verticalAlign=middle;whiteSpace=wrap;rounded=0;" parent="WIyWlLk6GJQsqaUBKTNV-1" vertex="1">
          <mxGeometry x="-1480" y="267.5" width="60" height="30" as="geometry" />
        </mxCell>
        <mxCell id="ZqzKbb4cEfQE_WqFz7V7-88" value="" style="endArrow=classic;html=1;sketch=0;fontFamily=Verdana;curved=1;entryX=0.894;entryY=0.987;entryDx=0;entryDy=0;entryPerimeter=0;exitX=-0.017;exitY=0.358;exitDx=0;exitDy=0;exitPerimeter=0;" parent="WIyWlLk6GJQsqaUBKTNV-1" source="eB_fhc0voJm1Zt_swYeX-0" target="ZqzKbb4cEfQE_WqFz7V7-85" edge="1">
          <mxGeometry width="50" height="50" relative="1" as="geometry">
            <mxPoint x="-1585" y="282.125" as="sourcePoint" />
            <mxPoint x="-1488.7400000000002" y="358.46000000000004" as="targetPoint" />
          </mxGeometry>
        </mxCell>
        <mxCell id="ZqzKbb4cEfQE_WqFz7V7-90" value="&lt;p style=&quot;margin:0px;margin-top:4px;text-align:center;&quot;&gt;&lt;i&gt;«enumeration»&lt;/i&gt;&lt;br&gt;&lt;b&gt;ActiveSubstanceCategory&lt;/b&gt;&lt;/p&gt;&lt;hr size=&quot;1&quot;&gt;&lt;p style=&quot;margin:0px;margin-left:4px;&quot;&gt;+ item: EnumeratedItem&lt;br&gt;&lt;/p&gt;&lt;hr size=&quot;1&quot;&gt;&lt;p style=&quot;margin:0px;margin-left:4px;&quot;&gt;&lt;br&gt;&lt;/p&gt;" style="verticalAlign=top;align=left;overflow=fill;fontSize=12;fontFamily=Verdana;html=1;sketch=0;strokeWidth=2;" parent="WIyWlLk6GJQsqaUBKTNV-1" vertex="1">
          <mxGeometry x="-2020" y="120" width="180" height="100" as="geometry" />
        </mxCell>
        <mxCell id="ZqzKbb4cEfQE_WqFz7V7-91" value="" style="endArrow=classic;html=1;sketch=0;fontFamily=Verdana;curved=1;" parent="WIyWlLk6GJQsqaUBKTNV-1" source="ZqzKbb4cEfQE_WqFz7V7-85" target="ZqzKbb4cEfQE_WqFz7V7-90" edge="1">
          <mxGeometry width="50" height="50" relative="1" as="geometry">
            <mxPoint x="-1421.2600000000002" y="283.045" as="sourcePoint" />
            <mxPoint x="-1458.7400000000002" y="220.0049999999998" as="targetPoint" />
          </mxGeometry>
        </mxCell>
        <mxCell id="ZqzKbb4cEfQE_WqFz7V7-92" value="0..1" style="text;html=1;strokeColor=none;fillColor=none;align=center;verticalAlign=middle;whiteSpace=wrap;rounded=0;" parent="WIyWlLk6GJQsqaUBKTNV-1" vertex="1">
          <mxGeometry x="-1851.25" y="140" width="60" height="30" as="geometry" />
        </mxCell>
        <mxCell id="ZqzKbb4cEfQE_WqFz7V7-95" value="" style="endArrow=classic;html=1;sketch=0;fontFamily=Verdana;curved=1;exitX=0.917;exitY=-0.018;exitDx=0;exitDy=0;exitPerimeter=0;entryX=0.047;entryY=0.998;entryDx=0;entryDy=0;entryPerimeter=0;" parent="WIyWlLk6GJQsqaUBKTNV-1" source="ZqzKbb4cEfQE_WqFz7V7-2" target="fq_hDrngQvyFMPAxzldU-141" edge="1">
          <mxGeometry width="50" height="50" relative="1" as="geometry">
            <mxPoint x="-1109.3000000000002" y="494" as="sourcePoint" />
            <mxPoint x="-720" y="344.4669821703719" as="targetPoint" />
          </mxGeometry>
        </mxCell>
        <mxCell id="ZqzKbb4cEfQE_WqFz7V7-97" value="1..n" style="text;html=1;strokeColor=none;fillColor=none;align=center;verticalAlign=middle;whiteSpace=wrap;rounded=0;" parent="WIyWlLk6GJQsqaUBKTNV-1" vertex="1">
          <mxGeometry x="-733" y="337.5" width="60" height="30" as="geometry" />
        </mxCell>
        <mxCell id="ZqzKbb4cEfQE_WqFz7V7-100" value="" style="endArrow=classic;html=1;sketch=0;fontFamily=Verdana;curved=1;" parent="WIyWlLk6GJQsqaUBKTNV-1" source="ZqzKbb4cEfQE_WqFz7V7-2" target="ZqzKbb4cEfQE_WqFz7V7-103" edge="1">
          <mxGeometry width="50" height="50" relative="1" as="geometry">
            <mxPoint x="-768.0855499999996" y="661.97" as="sourcePoint" />
            <mxPoint x="-615.1500000000003" y="707.5" as="targetPoint" />
          </mxGeometry>
        </mxCell>
        <mxCell id="ZqzKbb4cEfQE_WqFz7V7-101" value="1..n" style="text;html=1;strokeColor=none;fillColor=none;align=center;verticalAlign=middle;whiteSpace=wrap;rounded=0;" parent="WIyWlLk6GJQsqaUBKTNV-1" vertex="1">
          <mxGeometry x="-813.15" y="817.5" width="60" height="30" as="geometry" />
        </mxCell>
        <mxCell id="ZqzKbb4cEfQE_WqFz7V7-103" value="&lt;p style=&quot;margin:0px;margin-top:4px;text-align:center;&quot;&gt;&lt;i&gt;«enumaration»&lt;/i&gt;&lt;br&gt;&lt;b&gt;Pathogen&lt;/b&gt;&lt;/p&gt;&lt;hr size=&quot;1&quot;&gt;&lt;p style=&quot;margin:0px;margin-left:4px;&quot;&gt;&amp;nbsp;&lt;br&gt;&lt;/p&gt;&lt;hr size=&quot;1&quot;&gt;&lt;p style=&quot;margin:0px;margin-left:4px;&quot;&gt;&lt;br&gt;&lt;/p&gt;" style="verticalAlign=top;align=left;overflow=fill;fontSize=12;fontFamily=Verdana;html=1;sketch=0;strokeWidth=2;" parent="WIyWlLk6GJQsqaUBKTNV-1" vertex="1">
          <mxGeometry x="-860" y="843.5" width="130" height="95" as="geometry" />
        </mxCell>
        <mxCell id="y0Ac6wRbwB8dr229oPzu-27" value="0..*" style="text;html=1;strokeColor=none;fillColor=none;align=center;verticalAlign=middle;whiteSpace=wrap;rounded=0;" parent="WIyWlLk6GJQsqaUBKTNV-1" vertex="1">
          <mxGeometry x="-1975.75" y="351" width="60" height="30" as="geometry" />
        </mxCell>
        <mxCell id="y0Ac6wRbwB8dr229oPzu-32" value="&lt;p style=&quot;margin:0px;margin-top:4px;text-align:center;&quot;&gt;&lt;i&gt;«enumeration»&lt;/i&gt;&lt;br&gt;&lt;b&gt;ManureRecycling&lt;/b&gt;&lt;/p&gt;&lt;p style=&quot;margin:0px;margin-top:4px;text-align:center;&quot;&gt;&lt;b style=&quot;background-color: initial;&quot;&gt;ProductCategory&lt;/b&gt;&lt;/p&gt;&lt;hr size=&quot;1&quot;&gt;&lt;p style=&quot;margin:0px;margin-left:4px;&quot;&gt;+ item: EnumeratedItem&lt;br&gt;&lt;/p&gt;&lt;hr size=&quot;1&quot;&gt;&lt;p style=&quot;margin:0px;margin-left:4px;&quot;&gt;&lt;br&gt;&lt;/p&gt;" style="verticalAlign=top;align=left;overflow=fill;fontSize=12;fontFamily=Verdana;html=1;sketch=0;strokeWidth=2;" parent="WIyWlLk6GJQsqaUBKTNV-1" vertex="1">
          <mxGeometry x="-1580" y="749.9999999999999" width="160" height="108.37" as="geometry" />
        </mxCell>
        <mxCell id="y0Ac6wRbwB8dr229oPzu-33" value="" style="endArrow=classic;html=1;sketch=0;fontFamily=Verdana;curved=1;" parent="WIyWlLk6GJQsqaUBKTNV-1" source="fq_hDrngQvyFMPAxzldU-8" target="y0Ac6wRbwB8dr229oPzu-32" edge="1">
          <mxGeometry width="50" height="50" relative="1" as="geometry">
            <mxPoint x="-1176.2958149779738" y="711" as="sourcePoint" />
            <mxPoint x="-1146.6552863436123" y="800" as="targetPoint" />
          </mxGeometry>
        </mxCell>
        <mxCell id="y0Ac6wRbwB8dr229oPzu-34" value="&lt;p style=&quot;margin:0px;margin-top:4px;text-align:center;&quot;&gt;&lt;i&gt;«enumeration»&lt;/i&gt;&lt;br&gt;&lt;b&gt;NprCode&lt;/b&gt;&lt;/p&gt;&lt;hr size=&quot;1&quot;&gt;&lt;p style=&quot;margin:0px;margin-left:4px;&quot;&gt;+ id: EnumeratedItem&lt;br&gt;&lt;/p&gt;&lt;p style=&quot;margin:0px;margin-left:4px;&quot;&gt;+ descriptor: Descriptor&lt;/p&gt;&lt;hr size=&quot;1&quot;&gt;&lt;p style=&quot;margin:0px;margin-left:4px;&quot;&gt;&lt;br&gt;&lt;/p&gt;" style="verticalAlign=top;align=left;overflow=fill;fontSize=12;fontFamily=Verdana;html=1;sketch=0;strokeWidth=2;" parent="WIyWlLk6GJQsqaUBKTNV-1" vertex="1">
          <mxGeometry x="-1780" y="727" width="180" height="100" as="geometry" />
        </mxCell>
        <mxCell id="y0Ac6wRbwB8dr229oPzu-35" value="" style="endArrow=classic;html=1;sketch=0;fontFamily=Verdana;curved=1;exitX=0;exitY=1;exitDx=0;exitDy=0;" parent="WIyWlLk6GJQsqaUBKTNV-1" source="fq_hDrngQvyFMPAxzldU-8" target="y0Ac6wRbwB8dr229oPzu-34" edge="1">
          <mxGeometry width="50" height="50" relative="1" as="geometry">
            <mxPoint x="-1397.7662000000005" y="711.085" as="sourcePoint" />
            <mxPoint x="-1518.75" y="719.8107617979797" as="targetPoint" />
          </mxGeometry>
        </mxCell>
        <mxCell id="tzpt74OkvojpJiDbjngR-1" value="" style="endArrow=classic;html=1;sketch=0;fontFamily=Verdana;curved=1;" parent="WIyWlLk6GJQsqaUBKTNV-1" source="fq_hDrngQvyFMPAxzldU-93" target="eYUfmgDXyRDl5XwJps49-0" edge="1">
          <mxGeometry width="50" height="50" relative="1" as="geometry">
            <mxPoint x="-1392.981" y="738.7850000000001" as="sourcePoint" />
            <mxPoint x="-1229.0529903761276" y="630.31" as="targetPoint" />
          </mxGeometry>
        </mxCell>
        <mxCell id="vArm5jNpgtHskEP49Hul-0" value="&lt;p style=&quot;margin:0px;margin-top:4px;text-align:center;&quot;&gt;&lt;i&gt;«enumeration»&lt;/i&gt;&lt;/p&gt;&lt;p style=&quot;margin:0px;margin-top:4px;text-align:center;&quot;&gt;&lt;b&gt;MatterState&lt;/b&gt;&lt;/p&gt;&lt;hr size=&quot;1&quot;&gt;&lt;p style=&quot;margin:0px;margin-left:4px;&quot;&gt;+ item: EnumeratedItem&lt;br&gt;&lt;/p&gt;&lt;hr size=&quot;1&quot;&gt;&lt;p style=&quot;margin:0px;margin-left:4px;&quot;&gt;&lt;br&gt;&lt;/p&gt;" style="verticalAlign=top;align=left;overflow=fill;fontSize=12;fontFamily=Verdana;html=1;sketch=0;strokeWidth=2;" parent="WIyWlLk6GJQsqaUBKTNV-1" vertex="1">
          <mxGeometry x="-1720" y="485.75" width="160" height="84.25" as="geometry" />
        </mxCell>
        <mxCell id="vArm5jNpgtHskEP49Hul-1" value="" style="endArrow=classic;html=1;sketch=0;fontFamily=Verdana;curved=1;" parent="WIyWlLk6GJQsqaUBKTNV-1" source="fq_hDrngQvyFMPAxzldU-8" target="vArm5jNpgtHskEP49Hul-0" edge="1">
          <mxGeometry width="50" height="50" relative="1" as="geometry">
            <mxPoint x="-1544.8842" y="724.7750000000001" as="sourcePoint" />
            <mxPoint x="-1379.8695992030039" y="1001" as="targetPoint" />
          </mxGeometry>
        </mxCell>
        <mxCell id="vArm5jNpgtHskEP49Hul-2" value="0..*" style="text;html=1;strokeColor=none;fillColor=none;align=center;verticalAlign=middle;whiteSpace=wrap;rounded=0;" parent="WIyWlLk6GJQsqaUBKTNV-1" vertex="1">
          <mxGeometry x="-1931" y="839.5" width="60" height="30" as="geometry" />
        </mxCell>
        <mxCell id="gN1lc4UOupScJ7tWgOWS-0" value="&lt;p style=&quot;margin:0px;margin-top:4px;text-align:center;&quot;&gt;&lt;i&gt;«enumeration»&lt;/i&gt;&lt;/p&gt;&lt;p style=&quot;margin:0px;margin-top:4px;text-align:center;&quot;&gt;&lt;b&gt;ProductStatus&lt;/b&gt;&lt;/p&gt;&lt;hr size=&quot;1&quot;&gt;&lt;p style=&quot;margin:0px;margin-left:4px;&quot;&gt;+ item: EnumeratedItem&lt;br&gt;&lt;/p&gt;&lt;hr size=&quot;1&quot;&gt;&lt;p style=&quot;margin:0px;margin-left:4px;&quot;&gt;&lt;br&gt;&lt;/p&gt;" style="verticalAlign=top;align=left;overflow=fill;fontSize=12;fontFamily=Verdana;html=1;sketch=0;strokeWidth=2;" parent="WIyWlLk6GJQsqaUBKTNV-1" vertex="1">
          <mxGeometry x="-1530" y="429.25" width="160" height="84.25" as="geometry" />
        </mxCell>
        <mxCell id="gN1lc4UOupScJ7tWgOWS-3" value="" style="endArrow=classic;html=1;sketch=0;fontFamily=Verdana;curved=1;exitX=0.108;exitY=1;exitDx=0;exitDy=0;exitPerimeter=0;entryX=0.993;entryY=0.133;entryDx=0;entryDy=0;entryPerimeter=0;" parent="WIyWlLk6GJQsqaUBKTNV-1" source="fq_hDrngQvyFMPAxzldU-55" target="gN1lc4UOupScJ7tWgOWS-0" edge="1">
          <mxGeometry width="50" height="50" relative="1" as="geometry">
            <mxPoint x="-1594.475" y="638.5" as="sourcePoint" />
            <mxPoint x="-1612.917672050406" y="580.0000000000002" as="targetPoint" />
          </mxGeometry>
        </mxCell>
        <mxCell id="eB_fhc0voJm1Zt_swYeX-0" value="&lt;p style=&quot;margin:0px;margin-top:4px;text-align:center;&quot;&gt;&lt;b&gt;Ingredient&lt;/b&gt;&lt;/p&gt;&amp;nbsp;&lt;hr size=&quot;1&quot;&gt;&lt;p style=&quot;margin:0px;margin-left:4px;&quot;&gt;&amp;nbsp;&lt;br&gt;&lt;/p&gt;&lt;hr size=&quot;1&quot;&gt;&lt;p style=&quot;margin:0px;margin-left:4px;&quot;&gt;&lt;br&gt;&lt;/p&gt;" style="verticalAlign=top;align=left;overflow=fill;fontSize=12;fontFamily=Verdana;html=1;sketch=0;strokeWidth=2;" parent="WIyWlLk6GJQsqaUBKTNV-1" vertex="1">
          <mxGeometry x="-1520" y="250" width="130" height="91" as="geometry" />
        </mxCell>
        <mxCell id="eYUfmgDXyRDl5XwJps49-3" value="&lt;p style=&quot;margin:0px;margin-top:4px;text-align:center;&quot;&gt;&lt;b style=&quot;background-color: initial;&quot;&gt;Feedstuff&lt;/b&gt;&lt;/p&gt;&lt;p style=&quot;margin:0px;margin-top:4px;text-align:center;&quot;&gt;&lt;b style=&quot;background-color: initial;&quot;&gt;ProductType&lt;/b&gt;&lt;br&gt;&lt;/p&gt;&lt;hr size=&quot;1&quot;&gt;&lt;p style=&quot;margin:0px;margin-left:4px;&quot;&gt;&amp;nbsp;+ id: Identifier&lt;br&gt;&lt;/p&gt;&lt;p style=&quot;margin:0px;margin-left:4px;&quot;&gt;+descriptor: Descriptor&lt;/p&gt;&lt;hr size=&quot;1&quot;&gt;&lt;p style=&quot;margin:0px;margin-left:4px;&quot;&gt;&lt;br&gt;&lt;/p&gt;" style="verticalAlign=top;align=left;overflow=fill;fontSize=12;fontFamily=Verdana;html=1;sketch=0;strokeWidth=2;" parent="WIyWlLk6GJQsqaUBKTNV-1" vertex="1">
          <mxGeometry x="-1730" y="318.5" width="180" height="95" as="geometry" />
        </mxCell>
        <mxCell id="eYUfmgDXyRDl5XwJps49-5" value="" style="group" parent="WIyWlLk6GJQsqaUBKTNV-1" vertex="1" connectable="0">
          <mxGeometry x="-1350" y="600" width="230" height="110" as="geometry" />
        </mxCell>
        <mxCell id="eYUfmgDXyRDl5XwJps49-2" style="edgeStyle=orthogonalEdgeStyle;rounded=0;orthogonalLoop=1;jettySize=auto;html=1;entryX=1;entryY=0.5;entryDx=0;entryDy=0;" parent="eYUfmgDXyRDl5XwJps49-5" source="eYUfmgDXyRDl5XwJps49-0" target="eYUfmgDXyRDl5XwJps49-0" edge="1">
          <mxGeometry relative="1" as="geometry">
            <mxPoint x="190" y="48" as="targetPoint" />
            <Array as="points">
              <mxPoint x="150" y="110" />
              <mxPoint x="220" y="110" />
              <mxPoint x="220" y="48" />
            </Array>
          </mxGeometry>
        </mxCell>
        <mxCell id="eYUfmgDXyRDl5XwJps49-4" value="parent" style="edgeLabel;html=1;align=center;verticalAlign=middle;resizable=0;points=[];" parent="eYUfmgDXyRDl5XwJps49-2" vertex="1" connectable="0">
          <mxGeometry x="0.0586" y="1" relative="1" as="geometry">
            <mxPoint x="-19" y="-14" as="offset" />
          </mxGeometry>
        </mxCell>
        <mxCell id="eYUfmgDXyRDl5XwJps49-0" value="&lt;p style=&quot;margin:0px;margin-top:4px;text-align:center;&quot;&gt;&lt;b style=&quot;background-color: initial;&quot;&gt;FertiliserProductCategory&lt;/b&gt;&lt;br&gt;&lt;/p&gt;&lt;hr size=&quot;1&quot;&gt;&lt;p style=&quot;margin:0px;margin-left:4px;&quot;&gt;&amp;nbsp;+ id: Identifier&lt;br&gt;&lt;/p&gt;&lt;p style=&quot;margin:0px;margin-left:4px;&quot;&gt;+descriptor: Descriptor&lt;/p&gt;&lt;hr size=&quot;1&quot;&gt;&lt;p style=&quot;margin:0px;margin-left:4px;&quot;&gt;&lt;br&gt;&lt;/p&gt;" style="verticalAlign=top;align=left;overflow=fill;fontSize=12;fontFamily=Verdana;html=1;sketch=0;strokeWidth=2;" parent="eYUfmgDXyRDl5XwJps49-5" vertex="1">
          <mxGeometry width="180" height="95" as="geometry" />
        </mxCell>
        <mxCell id="eYUfmgDXyRDl5XwJps49-6" value="&lt;p style=&quot;margin:0px;margin-top:4px;text-align:center;&quot;&gt;&lt;b style=&quot;background-color: initial;&quot;&gt;Feedstuff&lt;/b&gt;&lt;/p&gt;&lt;p style=&quot;margin:0px;margin-top:4px;text-align:center;&quot;&gt;&lt;b style=&quot;background-color: initial;&quot;&gt;ProductCategory&lt;/b&gt;&lt;br&gt;&lt;/p&gt;&lt;hr size=&quot;1&quot;&gt;&lt;p style=&quot;margin:0px;margin-left:4px;&quot;&gt;&amp;nbsp;+ id: Identifier&lt;br&gt;&lt;/p&gt;&lt;p style=&quot;margin:0px;margin-left:4px;&quot;&gt;+descriptor: Descriptor&lt;/p&gt;&lt;hr size=&quot;1&quot;&gt;&lt;p style=&quot;margin:0px;margin-left:4px;&quot;&gt;&lt;br&gt;&lt;/p&gt;" style="verticalAlign=top;align=left;overflow=fill;fontSize=12;fontFamily=Verdana;html=1;sketch=0;strokeWidth=2;" parent="WIyWlLk6GJQsqaUBKTNV-1" vertex="1">
          <mxGeometry x="-1915.75" y="327.5" width="145.75" height="92.5" as="geometry" />
        </mxCell>
        <mxCell id="eYUfmgDXyRDl5XwJps49-9" value="" style="endArrow=classic;html=1;sketch=0;fontFamily=Verdana;curved=1;exitX=0.8;exitY=-0.011;exitDx=0;exitDy=0;exitPerimeter=0;" parent="WIyWlLk6GJQsqaUBKTNV-1" source="fq_hDrngQvyFMPAxzldU-11" target="eYUfmgDXyRDl5XwJps49-3" edge="1">
          <mxGeometry width="50" height="50" relative="1" as="geometry">
            <mxPoint x="-1329.96" y="367.625" as="sourcePoint" />
            <mxPoint x="-1435.6033333333335" y="271" as="targetPoint" />
          </mxGeometry>
        </mxCell>
        <mxCell id="eYUfmgDXyRDl5XwJps49-10" value="" style="endArrow=classic;html=1;sketch=0;fontFamily=Verdana;curved=1;exitX=0.342;exitY=0.004;exitDx=0;exitDy=0;exitPerimeter=0;entryX=0.684;entryY=1.011;entryDx=0;entryDy=0;entryPerimeter=0;" parent="WIyWlLk6GJQsqaUBKTNV-1" source="fq_hDrngQvyFMPAxzldU-11" target="eYUfmgDXyRDl5XwJps49-6" edge="1">
          <mxGeometry width="50" height="50" relative="1" as="geometry">
            <mxPoint x="-1760" y="447.01025000000004" as="sourcePoint" />
            <mxPoint x="-1688.197958676139" y="397" as="targetPoint" />
          </mxGeometry>
        </mxCell>
        <mxCell id="eYUfmgDXyRDl5XwJps49-12" value="allowedFor" style="text;html=1;strokeColor=none;fillColor=none;align=center;verticalAlign=middle;whiteSpace=wrap;rounded=0;" parent="WIyWlLk6GJQsqaUBKTNV-1" vertex="1">
          <mxGeometry x="-1986.25" y="532.5" width="60" height="30" as="geometry" />
        </mxCell>
        <mxCell id="eYUfmgDXyRDl5XwJps49-13" value="&lt;p style=&quot;margin:0px;margin-top:4px;text-align:center;&quot;&gt;&lt;i&gt;«enumeration»&lt;/i&gt;&lt;br&gt;&lt;b&gt;ProductFamily&lt;/b&gt;&lt;/p&gt;&lt;hr size=&quot;1&quot;&gt;&lt;p style=&quot;margin:0px;margin-left:4px;&quot;&gt;+ item: EnumeratedItem&lt;br&gt;&lt;/p&gt;&lt;hr size=&quot;1&quot;&gt;&lt;p style=&quot;margin:0px;margin-left:4px;&quot;&gt;&lt;br&gt;&lt;/p&gt;" style="verticalAlign=top;align=left;overflow=fill;fontSize=12;fontFamily=Verdana;html=1;sketch=0;strokeWidth=2;" parent="WIyWlLk6GJQsqaUBKTNV-1" vertex="1">
          <mxGeometry x="-1911.25" y="235" width="180" height="75" as="geometry" />
        </mxCell>
        <mxCell id="8MJOqnOzI6ZtPtBTbAP--10" value="&lt;p style=&quot;margin:0px;margin-top:4px;text-align:center;&quot;&gt;&lt;i&gt;&amp;lt;&amp;lt;enumeration&amp;gt;&amp;gt;&lt;/i&gt;&lt;br&gt;&lt;b&gt;Unit&lt;/b&gt;&lt;/p&gt;&lt;hr size=&quot;1&quot;&gt;&lt;p style=&quot;margin:0px;margin-left:4px;&quot;&gt;&lt;br&gt;&lt;/p&gt;" style="verticalAlign=top;align=left;overflow=fill;fontSize=12;fontFamily=Verdana;html=1;sketch=0;strokeWidth=2;" vertex="1" parent="WIyWlLk6GJQsqaUBKTNV-1">
          <mxGeometry x="-544" y="643.5" width="130" height="86.5" as="geometry" />
        </mxCell>
        <mxCell id="8MJOqnOzI6ZtPtBTbAP--11" value="&lt;p style=&quot;margin:0px;margin-top:4px;text-align:center;&quot;&gt;&lt;i&gt;«enumeration»&lt;/i&gt;&lt;br&gt;&lt;b&gt;CrossResistence&lt;/b&gt;&lt;/p&gt;&lt;p style=&quot;margin:0px;margin-top:4px;text-align:center;&quot;&gt;&lt;b&gt;Pattern&lt;/b&gt;&lt;/p&gt;&lt;hr size=&quot;1&quot;&gt;&lt;p style=&quot;margin:0px;margin-left:4px;&quot;&gt;+ item: EnumeratedItem&lt;br&gt;&lt;/p&gt;&lt;hr size=&quot;1&quot;&gt;&lt;p style=&quot;margin:0px;margin-left:4px;&quot;&gt;&lt;br&gt;&lt;/p&gt;" style="verticalAlign=top;align=left;overflow=fill;fontSize=12;fontFamily=Verdana;html=1;sketch=0;strokeWidth=2;" vertex="1" parent="WIyWlLk6GJQsqaUBKTNV-1">
          <mxGeometry x="-1530" y="120" width="140" height="100" as="geometry" />
        </mxCell>
        <mxCell id="8MJOqnOzI6ZtPtBTbAP--12" value="" style="endArrow=classic;html=1;sketch=0;fontFamily=Verdana;curved=1;entryX=-0.006;entryY=0.465;entryDx=0;entryDy=0;entryPerimeter=0;exitX=1.008;exitY=0.306;exitDx=0;exitDy=0;exitPerimeter=0;" edge="1" parent="WIyWlLk6GJQsqaUBKTNV-1" source="ZqzKbb4cEfQE_WqFz7V7-85" target="8MJOqnOzI6ZtPtBTbAP--11">
          <mxGeometry width="50" height="50" relative="1" as="geometry">
            <mxPoint x="-1510" y="269" as="sourcePoint" />
            <mxPoint x="-1606" y="216" as="targetPoint" />
          </mxGeometry>
        </mxCell>
        <mxCell id="8MJOqnOzI6ZtPtBTbAP--13" value="0..1" style="text;html=1;strokeColor=none;fillColor=none;align=center;verticalAlign=middle;whiteSpace=wrap;rounded=0;" vertex="1" parent="WIyWlLk6GJQsqaUBKTNV-1">
          <mxGeometry x="-1580" y="165" width="60" height="30" as="geometry" />
        </mxCell>
        <mxCell id="8MJOqnOzI6ZtPtBTbAP--14" value="&lt;p style=&quot;margin:0px;margin-top:4px;text-align:center;&quot;&gt;&lt;i&gt;«enumeration»&lt;/i&gt;&lt;br&gt;&lt;b&gt;Admission&lt;/b&gt;&lt;b style=&quot;background-color: initial;&quot;&gt;Type&lt;/b&gt;&lt;/p&gt;&lt;hr size=&quot;1&quot;&gt;&lt;p style=&quot;margin:0px;margin-left:4px;&quot;&gt;+ item:&amp;nbsp;&lt;span style=&quot;background-color: initial;&quot;&gt;EnumeratedItem&lt;/span&gt;&lt;/p&gt;&lt;hr size=&quot;1&quot;&gt;&lt;p style=&quot;margin:0px;margin-left:4px;&quot;&gt;&lt;br&gt;&lt;/p&gt;" style="verticalAlign=top;align=left;overflow=fill;fontSize=12;fontFamily=Verdana;html=1;sketch=0;strokeWidth=2;" vertex="1" parent="WIyWlLk6GJQsqaUBKTNV-1">
          <mxGeometry x="-1063" y="843.5" width="185.85" height="106.5" as="geometry" />
        </mxCell>
        <mxCell id="8MJOqnOzI6ZtPtBTbAP--15" value="" style="endArrow=classic;html=1;sketch=0;fontFamily=Verdana;curved=1;exitX=0.131;exitY=1.002;exitDx=0;exitDy=0;exitPerimeter=0;" edge="1" parent="WIyWlLk6GJQsqaUBKTNV-1" source="ZqzKbb4cEfQE_WqFz7V7-2" target="8MJOqnOzI6ZtPtBTbAP--14">
          <mxGeometry width="50" height="50" relative="1" as="geometry">
            <mxPoint x="-830" y="660" as="sourcePoint" />
            <mxPoint x="-850" y="690" as="targetPoint" />
          </mxGeometry>
        </mxCell>
        <mxCell id="8MJOqnOzI6ZtPtBTbAP--16" value="" style="endArrow=classic;html=1;sketch=0;fontFamily=Verdana;curved=1;entryX=0.521;entryY=0.002;entryDx=0;entryDy=0;entryPerimeter=0;" edge="1" parent="WIyWlLk6GJQsqaUBKTNV-1" source="ZqzKbb4cEfQE_WqFz7V7-22" target="y0Ac6wRbwB8dr229oPzu-34">
          <mxGeometry width="50" height="50" relative="1" as="geometry">
            <mxPoint x="-1525" y="622" as="sourcePoint" />
            <mxPoint x="-1676" y="617" as="targetPoint" />
            <Array as="points">
              <mxPoint x="-1690" y="720" />
            </Array>
          </mxGeometry>
        </mxCell>
        <mxCell id="8MJOqnOzI6ZtPtBTbAP--17" value="" style="endArrow=classic;html=1;sketch=0;fontFamily=Verdana;curved=1;exitX=0.009;exitY=0.436;exitDx=0;exitDy=0;exitPerimeter=0;" edge="1" parent="WIyWlLk6GJQsqaUBKTNV-1" source="fq_hDrngQvyFMPAxzldU-8" target="ZqzKbb4cEfQE_WqFz7V7-22">
          <mxGeometry width="50" height="50" relative="1" as="geometry">
            <mxPoint x="-1707" y="691" as="sourcePoint" />
            <mxPoint x="-1675" y="739" as="targetPoint" />
          </mxGeometry>
        </mxCell>
        <mxCell id="8MJOqnOzI6ZtPtBTbAP--18" value="0..*" style="text;html=1;strokeColor=none;fillColor=none;align=center;verticalAlign=middle;whiteSpace=wrap;rounded=0;" vertex="1" parent="WIyWlLk6GJQsqaUBKTNV-1">
          <mxGeometry x="-1660" y="634.25" width="60" height="30" as="geometry" />
        </mxCell>
        <mxCell id="8MJOqnOzI6ZtPtBTbAP--21" value="0..*" style="text;html=1;strokeColor=none;fillColor=none;align=center;verticalAlign=middle;whiteSpace=wrap;rounded=0;" vertex="1" parent="WIyWlLk6GJQsqaUBKTNV-1">
          <mxGeometry x="-1700" y="700" width="60" height="30" as="geometry" />
        </mxCell>
        <mxCell id="8MJOqnOzI6ZtPtBTbAP--22" value="0..1" style="text;html=1;strokeColor=none;fillColor=none;align=center;verticalAlign=middle;whiteSpace=wrap;rounded=0;" vertex="1" parent="WIyWlLk6GJQsqaUBKTNV-1">
          <mxGeometry x="-1740" y="255" width="60" height="30" as="geometry" />
        </mxCell>
        <mxCell id="8MJOqnOzI6ZtPtBTbAP--23" value="" style="endArrow=classic;html=1;sketch=0;fontFamily=Verdana;curved=1;entryX=1;entryY=0.403;entryDx=0;entryDy=0;entryPerimeter=0;exitX=0.59;exitY=0.99;exitDx=0;exitDy=0;exitPerimeter=0;" edge="1" parent="WIyWlLk6GJQsqaUBKTNV-1" source="ZqzKbb4cEfQE_WqFz7V7-85" target="eYUfmgDXyRDl5XwJps49-13">
          <mxGeometry width="50" height="50" relative="1" as="geometry">
            <mxPoint x="-1796.75" y="235" as="sourcePoint" />
            <mxPoint x="-1855.75" y="200" as="targetPoint" />
          </mxGeometry>
        </mxCell>
        <mxCell id="8MJOqnOzI6ZtPtBTbAP--24" value="allowedFor" style="text;html=1;strokeColor=none;fillColor=none;align=center;verticalAlign=middle;whiteSpace=wrap;rounded=0;" vertex="1" parent="WIyWlLk6GJQsqaUBKTNV-1">
          <mxGeometry x="-1697" y="230" width="60" height="30" as="geometry" />
        </mxCell>
      </root>
    </mxGraphModel>
  </diagram>
</mxfile>
